<svg id="Gitbook_After" data-name="Gitbook After" xmlns="http://www.w3.org/2000/svg" width="39.131" height="28.215" viewBox="0 0 39.131 28.215">
  <g id="Group_111" data-name="Group 111">
    <path id="Path_2505" data-name="Path 2505" d="M-527.924,951.6a3.542,3.542,0,0,0-4.218-2.942,3.542,3.542,0,0,0-2.75,4.272.381.381,0,0,1-.235.512q-5.518,2.927-11.027,5.871a.37.37,0,0,1-.55-.094,3.522,3.522,0,0,0-5.721.448c-.133.2-.217.247-.443.128-3.313-1.757-6.606-3.555-9.96-5.231a4.747,4.747,0,0,1-1.918-5.193,1.108,1.108,0,0,1,1.773-.7c3.921,2.082,7.866,4.118,11.78,6.214a2.5,2.5,0,0,0,2.572,0c3.167-1.679,6.354-3.319,9.535-4.972q4.587-2.384,9.177-4.762a.835.835,0,0,0,.519-.739.822.822,0,0,0-.495-.754q-.108-.061-.22-.114c-4.456-2.12-8.957-4.144-13.369-6.358a2.793,2.793,0,0,0-2.594-.011q-9.353,4.648-18.7,9.308a3.554,3.554,0,0,0-1.273.967,5.059,5.059,0,0,0-.969,3.3,5.179,5.179,0,0,0,.177,1.437,5.974,5.974,0,0,0,2.944,4.2q5.286,2.744,10.59,5.455a.824.824,0,0,1,.473.6,3.531,3.531,0,0,0,3.777,2.619,3.523,3.523,0,0,0,3.167-3.148.573.573,0,0,1,.377-.516q5.751-3.1,11.493-6.228a.644.644,0,0,1,.739.012,3.4,3.4,0,0,0,3.826-.094A3.382,3.382,0,0,0-527.924,951.6Zm-21.5,11.054a1.13,1.13,0,0,1-1.1-1.156,1.112,1.112,0,0,1,1.145-1.1,1.113,1.113,0,0,1,1.1,1.146A1.146,1.146,0,0,1-549.421,962.655Zm17.988-9.375a1.164,1.164,0,0,1-1.141-1.132,1.179,1.179,0,0,1,1.138-1.141,1.178,1.178,0,0,1,1.14,1.137A1.166,1.166,0,0,1-531.433,953.279Z" transform="translate(567.011 -936.853)" fill="#3984fe"/>
  </g>
</svg>
