<svg id="Medium_After" data-name="Medium After" xmlns="http://www.w3.org/2000/svg" width="35.842" height="28.362" viewBox="0 0 35.842 28.362">
  <path id="medium" d="M35.525,55.225a1.05,1.05,0,0,0-.733-1.8H24.3a1.05,1.05,0,0,0-1.05,1.05v5.051l-3.93,10.187L12.109,54.034a1.05,1.05,0,0,0-.954-.611H1.324a1.05,1.05,0,0,0-.813,1.714l4.444,5.441v13.44L.222,80.09a1.05,1.05,0,0,0,.828,1.7h9.91a1.05,1.05,0,0,0,.828-1.7L7.055,74.019V64.684L15.248,81.2a1.05,1.05,0,0,0,.94.583h.049a1.05,1.05,0,0,0,.931-.671l6.077-15.754V76.466L20.421,80.09a1.05,1.05,0,0,0,.828,1.7H34.36a1.05,1.05,0,0,0,.828-1.7l-2.825-3.623V58.307Z" transform="translate(0 -53.423)" fill="#fff"/>
  <path id="medium_1_" data-name="medium (1)" d="M35.336,55.216a1.045,1.045,0,0,0-.729-1.793H24.166a1.045,1.045,0,0,0-1.045,1.045v5.024L19.213,69.625,12.044,54.031a1.045,1.045,0,0,0-.949-.608H1.317a1.045,1.045,0,0,0-.809,1.705l4.42,5.412V73.91L.22,79.949a1.044,1.044,0,0,0,.824,1.687H10.9a1.044,1.044,0,0,0,.824-1.687L7.017,73.91V64.624l8.15,16.431a1.045,1.045,0,0,0,.936.58h.048a1.044,1.044,0,0,0,.926-.668L23.122,65.3V76.345l-2.81,3.6a1.045,1.045,0,0,0,.824,1.687H34.177A1.045,1.045,0,0,0,35,79.949l-2.81-3.6V58.281ZM3.183,79.546l2.79-3.579,2.79,3.579ZM15.983,78,6.908,59.7,6.9,59.692c-.012-.024-.026-.047-.04-.07L6.846,59.6c-.017-.026-.036-.052-.055-.076l-.009-.012,0,0h0l-3.26-3.991h6.907l7.738,16.832Zm14.34-.653,1.716,2.2H23.275l1.715-2.2a1.045,1.045,0,0,0,.221-.642V55.512h6.828l-1.621,1.58a1.045,1.045,0,0,0-.315.748V76.7A1.044,1.044,0,0,0,30.323,77.346Z" transform="translate(0.188 -53.423)" fill="#fff"/>
</svg>
