<svg id="Twitter_Before" data-name="Twitter Before" xmlns="http://www.w3.org/2000/svg" width="34.922" height="28.363" viewBox="0 0 34.922 28.363">
  <path id="Icon_awesome-twitter" data-name="Icon awesome-twitter" d="M31.333,10.449c.022.31.022.62.022.931,0,9.462-7.2,20.364-20.364,20.364A20.226,20.226,0,0,1,0,28.531a14.806,14.806,0,0,0,1.728.089,14.334,14.334,0,0,0,8.886-3.058A7.17,7.17,0,0,1,3.922,20.6a9.026,9.026,0,0,0,1.352.111,7.57,7.57,0,0,0,1.883-.244,7.158,7.158,0,0,1-5.739-7.024v-.089a7.208,7.208,0,0,0,3.235.908A7.168,7.168,0,0,1,2.437,4.688,20.344,20.344,0,0,0,17.2,12.178a8.08,8.08,0,0,1-.177-1.64A7.164,7.164,0,0,1,29.4,5.641a14.092,14.092,0,0,0,4.543-1.728A7.138,7.138,0,0,1,30.8,7.857a14.348,14.348,0,0,0,4.122-1.108,15.386,15.386,0,0,1-3.59,3.7Z" transform="translate(0 -3.381)" fill="#98989a"/>
</svg>
